<svg xmlns="http://www.w3.org/2000/svg" viewBox="0 0 100 100" preserveAspectRatio="xMidYMid" style="shape-rendering: auto; display: block; background: rgb(255, 255, 255);" width="200" height="200"><g data-idx="1" style="fill: rgb(0, 0, 0); stroke: none; transform: none; opacity: 1;"><g transform="matrix(1,0,0,1,0,0)" data-idx="2" style="fill: rgb(0, 0, 0); stroke: none; opacity: 1;">
  <rect fill="#fe718d" height="12" width="6" ry="6" rx="3" y="24" x="47" data-idx="3" opacity="0.943" style="stroke: none; transform: none;">
    
  </rect>
</g><g transform="matrix(0.8660253882408142,0.5,-0.5,0.8660253882408142,31.69873046875,-18.30126953125)" data-idx="5" style="fill: rgb(0, 0, 0); stroke: none; opacity: 1;">
  <rect fill="#fe718d" height="12" width="6" ry="6" rx="3" y="24" x="47" data-idx="6" opacity="0.027" style="stroke: none; transform: none;">
    
  </rect>
</g><g transform="matrix(0.5,0.8660253882408142,-0.8660253882408142,0.5,68.30126953125,-18.30126953125)" data-idx="8" style="fill: rgb(0, 0, 0); stroke: none; opacity: 1;">
  <rect fill="#fe718d" height="12" width="6" ry="6" rx="3" y="24" x="47" data-idx="9" opacity="0.11" style="stroke: none; transform: none;">
    
  </rect>
</g><g transform="matrix(6.123234262925839e-17,1,-1,6.123234262925839e-17,100,0)" data-idx="11" style="fill: rgb(0, 0, 0); stroke: none; opacity: 1;">
  <rect fill="#fe718d" height="12" width="6" ry="6" rx="3" y="24" x="47" data-idx="12" opacity="0.193" style="stroke: none; transform: none;">
    
  </rect>
</g><g transform="matrix(-0.5,0.8660253882408142,-0.8660253882408142,-0.5,118.30126953125,31.69873046875)" data-idx="14" style="fill: rgb(0, 0, 0); stroke: none; opacity: 1;">
  <rect fill="#fe718d" height="12" width="6" ry="6" rx="3" y="24" x="47" data-idx="15" opacity="0.277" style="stroke: none; transform: none;">
    
  </rect>
</g><g transform="matrix(-0.8660253882408142,0.5,-0.5,-0.8660253882408142,118.30126953125,68.30126953125)" data-idx="17" style="fill: rgb(0, 0, 0); stroke: none; opacity: 1;">
  <rect fill="#fe718d" height="12" width="6" ry="6" rx="3" y="24" x="47" data-idx="18" opacity="0.36" style="stroke: none; transform: none;">
    
  </rect>
</g><g transform="matrix(-1,1.2246468525851679e-16,-1.2246468525851679e-16,-1,100,100)" data-idx="20" style="fill: rgb(0, 0, 0); stroke: none; opacity: 1;">
  <rect fill="#fe718d" height="12" width="6" ry="6" rx="3" y="24" x="47" data-idx="21" opacity="0.443" style="stroke: none; transform: none;">
    
  </rect>
</g><g transform="matrix(-0.8660253882408142,-0.5,0.5,-0.8660253882408142,68.30126953125,118.30126953125)" data-idx="23" style="fill: rgb(0, 0, 0); stroke: none; opacity: 1;">
  <rect fill="#fe718d" height="12" width="6" ry="6" rx="3" y="24" x="47" data-idx="24" opacity="0.527" style="stroke: none; transform: none;">
    
  </rect>
</g><g transform="matrix(-0.5,-0.8660253882408142,0.8660253882408142,-0.5,31.69873046875,118.30126953125)" data-idx="26" style="fill: rgb(0, 0, 0); stroke: none; opacity: 1;">
  <rect fill="#fe718d" height="12" width="6" ry="6" rx="3" y="24" x="47" data-idx="27" opacity="0.61" style="stroke: none; transform: none;">
    
  </rect>
</g><g transform="matrix(-1.8369701465288538e-16,-1,1,-1.8369701465288538e-16,7.105427357601002e-15,100)" data-idx="29" style="fill: rgb(0, 0, 0); stroke: none; opacity: 1;">
  <rect fill="#fe718d" height="12" width="6" ry="6" rx="3" y="24" x="47" data-idx="30" opacity="0.693" style="stroke: none; transform: none;">
    
  </rect>
</g><g transform="matrix(0.5,-0.8660253882408142,0.8660253882408142,0.5,-18.30126953125,68.30126953125)" data-idx="32" style="fill: rgb(0, 0, 0); stroke: none; opacity: 1;">
  <rect fill="#fe718d" height="12" width="6" ry="6" rx="3" y="24" x="47" data-idx="33" opacity="0.777" style="stroke: none; transform: none;">
    
  </rect>
</g><g transform="matrix(0.8660253882408142,-0.5,0.5,0.8660253882408142,-18.30126953125,31.69873046875)" data-idx="35" style="fill: rgb(0, 0, 0); stroke: none; opacity: 1;">
  <rect fill="#fe718d" height="12" width="6" ry="6" rx="3" y="24" x="47" data-idx="36" opacity="0.86" style="stroke: none; transform: none;">
    
  </rect>
</g><g data-idx="38" style="fill: rgb(0, 0, 0); stroke: none; transform: none; opacity: 1;"></g></g><text data-watermark="true" text-anchor="middle" dominant-baseline="middle" stroke-opacity="0.1" fill="black" fill-opacity="0.1" stroke="white" stroke-width="1" font-size="5.0" x="50" y="50" style="opacity: 1; font-size: 5px; transform: none;" data-idx="39">LOADING.IO</text></svg>